<svg width="106" height="107" viewBox="0 0 106 107" fill="none" xmlns="http://www.w3.org/2000/svg">
<g filter="url(#filter0_dd)">
<circle cx="46" cy="50.875" r="36" fill="url(#paint0_linear)"/>
</g>
<g filter="url(#filter1_dd)">
<path d="M25.0068 59.275C22.6631 59.275 20.4658 59.7125 18.415 60.5875C16.3643 61.4625 14.5625 62.6438 13.0098 64.1313C11.457 65.6188 10.2412 67.3979 9.3623 69.4688C8.4834 71.5396 8.0293 73.7417 8 76.075C8 78.4083 8.43945 80.5813 9.31836 82.5938C10.1973 84.6063 11.3984 86.3854 12.9219 87.9313C14.4453 89.4771 16.2471 90.6875 18.3271 91.5625C20.4072 92.4375 22.5898 92.875 24.875 92.875H75.5C78.6055 92.875 81.5205 92.2917 84.2451 91.125C86.9697 89.9583 89.3574 88.3688 91.4082 86.3563C93.459 84.3438 95.0703 81.9667 96.2422 79.225C97.4141 76.4833 98 73.5667 98 70.475C98 67.3833 97.4141 64.4813 96.2422 61.7688C95.0703 59.0563 93.4736 56.6792 91.4521 54.6375C89.4307 52.5958 87.043 50.9917 84.2891 49.825C81.5352 48.6583 78.6055 48.075 75.5 48.075C74.1523 48.075 72.79 48.2063 71.4131 48.4688C70.2412 46.6604 68.8936 45.0417 67.3701 43.6125C65.8467 42.1833 64.1621 40.9583 62.3164 39.9375C60.4707 38.9167 58.5371 38.1583 56.5156 37.6625C54.4941 37.1667 52.3848 36.9042 50.1875 36.875C46.9355 36.875 43.874 37.4438 41.0029 38.5813C38.1318 39.7188 35.5684 41.2792 33.3125 43.2625C31.0566 45.2458 29.2256 47.6229 27.8193 50.3938C26.4131 53.1646 25.4756 56.125 25.0068 59.275Z" fill="url(#paint1_linear)"/>
</g>
<path d="M97.9179 69.1805C97.9179 79.7931 87.2039 86.2868 76.596 86.2868C65.9881 86.2868 57.3887 77.6837 57.3887 67.0712C57.3887 56.4586 65.9881 47.8555 76.596 47.8555C87.2039 47.8555 97.9179 58.568 97.9179 69.1805Z" fill="url(#paint2_linear)"/>
<path d="M70.9772 54.3541C66.3971 54.3541 62.3147 56.0783 59.1285 58.8167C59.1285 58.8167 59.029 58.8167 59.029 58.9181C60.9208 54.8612 64.2066 51.5143 68.1893 49.5873C64.804 45.6319 59.9251 43.1978 54.3492 43.1978C44.2928 43.1978 36.2277 51.5143 36.2277 61.5551C36.2277 63.1778 36.4268 64.8005 36.8251 66.3219C35.4311 65.8148 33.9376 65.5105 32.3445 65.5105C25.3747 65.5105 19.6992 71.2915 19.6992 78.2896C19.6992 85.2877 25.3747 91.0687 32.3445 91.0687C32.444 91.0687 32.5436 91.0687 32.5436 91.0687H70.579C70.6785 91.0687 70.7781 91.0687 70.8777 91.0687C80.9341 91.0687 88.9992 82.7522 88.9992 72.7114C88.9992 62.6707 80.9341 54.3541 70.9772 54.3541Z" fill="url(#paint3_linear)"/>
<defs>
<filter id="filter0_dd" x="6" y="9.875" width="80" height="83" filterUnits="userSpaceOnUse" color-interpolation-filters="sRGB">
<feFlood flood-opacity="0" result="BackgroundImageFix"/>
<feColorMatrix in="SourceAlpha" type="matrix" values="0 0 0 0 0 0 0 0 0 0 0 0 0 0 0 0 0 0 127 0"/>
<feOffset dy="-1"/>
<feGaussianBlur stdDeviation="2"/>
<feColorMatrix type="matrix" values="0 0 0 0 0.996078 0 0 0 0 0.878431 0 0 0 0 0.411765 0 0 0 1 0"/>
<feBlend mode="normal" in2="BackgroundImageFix" result="effect1_dropShadow"/>
<feColorMatrix in="SourceAlpha" type="matrix" values="0 0 0 0 0 0 0 0 0 0 0 0 0 0 0 0 0 0 127 0"/>
<feOffset dy="2"/>
<feGaussianBlur stdDeviation="2"/>
<feColorMatrix type="matrix" values="0 0 0 0 0 0 0 0 0 0 0 0 0 0 0 0 0 0 0.25 0"/>
<feBlend mode="normal" in2="effect1_dropShadow" result="effect2_dropShadow"/>
<feBlend mode="normal" in="SourceGraphic" in2="effect2_dropShadow" result="shape"/>
</filter>
<filter id="filter1_dd" x="4" y="33.875" width="98" height="64" filterUnits="userSpaceOnUse" color-interpolation-filters="sRGB">
<feFlood flood-opacity="0" result="BackgroundImageFix"/>
<feColorMatrix in="SourceAlpha" type="matrix" values="0 0 0 0 0 0 0 0 0 0 0 0 0 0 0 0 0 0 127 0"/>
<feOffset dx="2"/>
<feGaussianBlur stdDeviation="1"/>
<feColorMatrix type="matrix" values="0 0 0 0 0 0 0 0 0 0 0 0 0 0 0 0 0 0 0.2 0"/>
<feBlend mode="normal" in2="BackgroundImageFix" result="effect1_dropShadow"/>
<feColorMatrix in="SourceAlpha" type="matrix" values="0 0 0 0 0 0 0 0 0 0 0 0 0 0 0 0 0 0 127 0"/>
<feOffset dy="1"/>
<feGaussianBlur stdDeviation="2"/>
<feColorMatrix type="matrix" values="0 0 0 0 0 0 0 0 0 0 0 0 0 0 0 0 0 0 0.15 0"/>
<feBlend mode="normal" in2="effect1_dropShadow" result="effect2_dropShadow"/>
<feBlend mode="normal" in="SourceGraphic" in2="effect2_dropShadow" result="shape"/>
</filter>
<linearGradient id="paint0_linear" x1="20.125" y1="25" x2="81.9958" y2="80.7951" gradientUnits="userSpaceOnUse">
<stop offset="0.0653907" stop-color="#FFE975"/>
<stop offset="0.420045" stop-color="#FFB729"/>
<stop offset="0.595906" stop-color="#FF9900"/>
</linearGradient>
<linearGradient id="paint1_linear" x1="8" y1="36.875" x2="88.1102" y2="106.665" gradientUnits="userSpaceOnUse">
<stop stop-color="white"/>
<stop offset="0.677083" stop-color="#D9E7EF"/>
<stop offset="0.96875" stop-color="#B1D1E4"/>
</linearGradient>
<linearGradient id="paint2_linear" x1="70.0106" y1="48.4045" x2="74.9537" y2="70.3644" gradientUnits="userSpaceOnUse">
<stop offset="0.265243" stop-color="#F4F8FA"/>
<stop offset="0.899425" stop-color="#F4F8FA" stop-opacity="0"/>
</linearGradient>
<linearGradient id="paint3_linear" x1="33.0093" y1="65.051" x2="83.891" y2="87.5472" gradientUnits="userSpaceOnUse">
<stop stop-color="#C9E2F0"/>
<stop offset="0.410663" stop-color="#DEEBF2"/>
<stop offset="1" stop-color="#DEEBF2"/>
<stop offset="1" stop-color="#BDE1F6"/>
</linearGradient>
</defs>
</svg>
