<svg width="100" height="100" viewBox="0 0 103 88" xmlns="http://www.w3.org/2000/svg">
<g filter="url(#filter0_d)">
<path d="M42.5576 19.2326C40.7453 19.2326 39.0462 19.5691 37.4605 20.2423C35.8747 20.9154 34.4815 21.8242 33.2808 22.9685C32.0801 24.1129 31.14 25.4816 30.4604 27.0747C29.7808 28.6678 29.4296 30.3619 29.407 32.157C29.407 33.952 29.7468 35.6237 30.4264 37.1719C31.106 38.7202 32.0348 40.0889 33.2128 41.2781C34.3908 42.4673 35.7841 43.3985 37.3925 44.0717C39.0009 44.7448 40.6887 45.0814 42.4557 45.0814H81.6017C84.0031 45.0814 86.2571 44.6326 88.364 43.7351C90.4708 42.8376 92.3171 41.6147 93.9029 40.0665C95.4886 38.5182 96.7346 36.6895 97.6408 34.5803C98.5469 32.4711 99 30.2273 99 27.8488C99 25.4704 98.5469 23.2378 97.6408 21.151C96.7346 19.0643 95.5 17.2356 93.9368 15.6649C92.3737 14.0942 90.5274 12.8601 88.3979 11.9626C86.2685 11.065 84.0031 10.6163 81.6017 10.6163C80.5597 10.6163 79.5063 10.7173 78.4415 10.9192C77.5354 9.52803 76.4933 8.2827 75.3153 7.18323C74.1373 6.08376 72.8347 5.14135 71.4075 4.35601C69.9803 3.57068 68.4851 2.98728 66.922 2.60583C65.3588 2.22438 63.7278 2.02244 62.0287 2C59.5141 2 57.1468 2.43755 54.9267 3.31264C52.7066 4.18773 50.7244 5.38817 48.98 6.91397C47.2357 8.43977 45.8198 10.2685 44.7324 12.4001C43.645 14.5317 42.9201 16.8092 42.5576 19.2326Z" fill="url(#paint0_linear)" fill-opacity="0.65"/>
</g>
<path d="M43.0383 21.6628C41.3123 21.6628 39.6941 21.9821 38.1839 22.6207C36.6736 23.2594 35.3467 24.1215 34.2033 25.2072C33.0598 26.2928 32.1644 27.5914 31.5171 29.1028C30.8699 30.6142 30.5355 32.2214 30.5139 33.9244C30.5139 35.6274 30.8375 37.2134 31.4848 38.6822C32.132 40.151 33.0166 41.4496 34.1385 42.5778C35.2604 43.7061 36.5873 44.5895 38.1192 45.2281C39.651 45.8667 41.2584 46.1861 42.9412 46.1861H80.2232C82.5102 46.1861 84.6569 45.7603 86.6634 44.9088C88.6699 44.0573 90.4283 42.8971 91.9385 41.4283C93.4488 39.9594 94.6354 38.2245 95.4985 36.2235C96.3615 34.2225 96.793 32.0937 96.793 29.8372C96.793 27.5807 96.3615 25.4626 95.4985 23.4829C94.6354 21.5031 93.4596 19.7682 91.9709 18.2781C90.4822 16.788 88.7238 15.6171 86.6958 14.7656C84.6677 13.9141 82.5102 13.4884 80.2232 13.4884C79.2307 13.4884 78.2275 13.5842 77.2135 13.7758C76.3504 12.4559 75.358 11.2745 74.2361 10.2314C73.1142 9.1883 71.8736 8.29422 70.5144 7.54916C69.1551 6.80409 67.7311 6.25062 66.2425 5.88873C64.7538 5.52684 63.2004 5.33525 61.5822 5.31396C59.1874 5.31396 56.9328 5.72907 54.8184 6.55929C52.704 7.3895 50.8162 8.52838 49.1549 9.97594C47.4936 11.4235 46.1451 13.1584 45.1095 15.1807C44.0739 17.2031 43.3835 19.3637 43.0383 21.6628Z" fill="#A4C0D2"/>
<g filter="url(#filter1_dd)">
<path d="M21.1173 28.9535C18.7584 28.9535 16.547 29.3936 14.483 30.2739C12.4189 31.1541 10.6055 32.3425 9.04277 33.839C7.48 35.3354 6.25633 37.1253 5.37174 39.2086C4.48716 41.2919 4.03013 43.5072 4.00064 45.8546C4.00064 48.202 4.44293 50.388 5.32751 52.4126C6.2121 54.4372 7.42103 56.2271 8.95431 57.7823C10.4876 59.3374 12.301 60.5551 14.3945 61.4354C16.488 62.3157 18.6847 62.7558 20.9846 62.7558H71.9367C75.0622 62.7558 77.9961 62.1689 80.7383 60.9953C83.4805 59.8216 85.8836 58.2224 87.9477 56.1978C90.0117 54.1732 91.6334 51.7818 92.8129 49.0236C93.9923 46.2654 94.582 43.3312 94.582 40.2209C94.582 37.1106 93.9923 34.1911 92.8129 31.4622C91.6334 28.7334 90.0264 26.342 87.9919 24.288C85.9573 22.2341 83.5542 20.6203 80.7825 19.4466C78.0108 18.2729 75.0622 17.686 71.9367 17.686C70.5803 17.686 69.2092 17.8181 67.8234 18.0821C66.6439 16.2629 65.2876 14.6344 63.7543 13.1966C62.221 11.7589 60.5256 10.5265 58.6679 9.49952C56.8103 8.47254 54.8642 7.70964 52.8297 7.21082C50.7951 6.712 48.6721 6.44792 46.4607 6.41858C43.1877 6.41858 40.1064 6.99075 37.2168 8.1351C34.3271 9.27945 31.7471 10.8493 29.4767 12.8445C27.2062 14.8398 25.3633 17.2312 23.948 20.0187C22.5327 22.8063 21.5891 25.7845 21.1173 28.9535Z" fill="url(#paint1_linear)"/>
</g>
<circle cx="28.8519" cy="47.8431" r="12.7035" fill="url(#paint2_linear)"/>
<circle cx="50.9416" cy="31.2733" r="18.2267" fill="url(#paint3_linear)"/>
<circle cx="73.0384" cy="36.7966" r="19.3314" fill="url(#paint4_linear)"/>
<circle cx="67.5158" cy="42.3199" r="18.2267" fill="url(#paint5_linear)"/>
<path d="M67.7922 46.9707C67.7922 46.9707 50.3123 66.7152 39.1621 79.3103C39.1316 79.3446 36.2505 79.3103 36.2505 79.3103L44.9851 53.4386H33.8242L40.5586 34.0349L57.9849 34.0349L53.7198 46.9707H67.7922Z" fill="#FFB800"/>
<g filter="url(#filter2_d)">
<path d="M67.7941 46.975L39.3266 79.3255L48.0116 53.4452H36.9141L43.6102 34.0349L58.0425 34.0349L53.8016 46.975H67.7941Z" fill="url(#paint6_linear)"/>
</g>
<defs>
<filter id="filter0_d" x="29.4062" y="0.5" width="73.093" height="46.0814" filterUnits="userSpaceOnUse" color-interpolation-filters="sRGB">
<feFlood flood-opacity="0" result="BackgroundImageFix"/>
<feColorMatrix in="SourceAlpha" type="matrix" values="0 0 0 0 0 0 0 0 0 0 0 0 0 0 0 0 0 0 127 0"/>
<feOffset dx="2"/>
<feGaussianBlur stdDeviation="0.75"/>
<feColorMatrix type="matrix" values="0 0 0 0 0 0 0 0 0 0 0 0 0 0 0 0 0 0 0.2 0"/>
<feBlend mode="normal" in2="BackgroundImageFix" result="effect1_dropShadow"/>
<feBlend mode="normal" in="SourceGraphic" in2="effect1_dropShadow" result="shape"/>
</filter>
<filter id="filter1_dd" x="0" y="3.41858" width="98.5814" height="64.3372" filterUnits="userSpaceOnUse" color-interpolation-filters="sRGB">
<feFlood flood-opacity="0" result="BackgroundImageFix"/>
<feColorMatrix in="SourceAlpha" type="matrix" values="0 0 0 0 0 0 0 0 0 0 0 0 0 0 0 0 0 0 127 0"/>
<feOffset dx="2"/>
<feGaussianBlur stdDeviation="1"/>
<feColorMatrix type="matrix" values="0 0 0 0 0 0 0 0 0 0 0 0 0 0 0 0 0 0 0.2 0"/>
<feBlend mode="normal" in2="BackgroundImageFix" result="effect1_dropShadow"/>
<feColorMatrix in="SourceAlpha" type="matrix" values="0 0 0 0 0 0 0 0 0 0 0 0 0 0 0 0 0 0 127 0"/>
<feOffset dy="1"/>
<feGaussianBlur stdDeviation="2"/>
<feColorMatrix type="matrix" values="0 0 0 0 0 0 0 0 0 0 0 0 0 0 0 0 0 0 0.15 0"/>
<feBlend mode="normal" in2="effect1_dropShadow" result="effect2_dropShadow"/>
<feBlend mode="normal" in="SourceGraphic" in2="effect2_dropShadow" result="shape"/>
</filter>
<filter id="filter2_d" x="32.9141" y="34.0349" width="38.88" height="53.2907" filterUnits="userSpaceOnUse" color-interpolation-filters="sRGB">
<feFlood flood-opacity="0" result="BackgroundImageFix"/>
<feColorMatrix in="SourceAlpha" type="matrix" values="0 0 0 0 0 0 0 0 0 0 0 0 0 0 0 0 0 0 127 0"/>
<feOffset dy="4"/>
<feGaussianBlur stdDeviation="2"/>
<feColorMatrix type="matrix" values="0 0 0 0 0 0 0 0 0 0 0 0 0 0 0 0 0 0 0.25 0"/>
<feBlend mode="normal" in2="BackgroundImageFix" result="effect1_dropShadow"/>
<feBlend mode="normal" in="SourceGraphic" in2="effect1_dropShadow" result="shape"/>
</filter>
<linearGradient id="paint0_linear" x1="29.407" y1="2" x2="98.6243" y2="45.6768" gradientUnits="userSpaceOnUse">
<stop offset="0.21875" stop-color="white"/>
<stop offset="0.645833" stop-color="#F7FCFF"/>
</linearGradient>
<linearGradient id="paint1_linear" x1="4.00064" y1="6.41857" x2="94.3327" y2="63.1528" gradientUnits="userSpaceOnUse">
<stop stop-color="white"/>
<stop offset="0.677083" stop-color="#D9E7EF"/>
<stop offset="0.96875" stop-color="#ADDDF9"/>
</linearGradient>
<linearGradient id="paint2_linear" x1="19.9124" y1="39.3741" x2="32.6159" y2="50.6661" gradientUnits="userSpaceOnUse">
<stop stop-color="#CFE5F2"/>
<stop offset="1" stop-color="#E2EDF3"/>
</linearGradient>
<linearGradient id="paint3_linear" x1="38.2841" y1="18.1096" x2="54.4857" y2="33.8048" gradientUnits="userSpaceOnUse">
<stop stop-color="#CFE5F2"/>
<stop offset="1" stop-color="#DFECF3" stop-opacity="0"/>
</linearGradient>
<linearGradient id="paint4_linear" x1="66.4105" y1="18.0175" x2="71.3815" y2="40.1106" gradientUnits="userSpaceOnUse">
<stop offset="0.265243" stop-color="#F4F8FA"/>
<stop offset="0.899425" stop-color="#F4F8FA" stop-opacity="0"/>
</linearGradient>
<linearGradient id="paint5_linear" x1="67.5158" y1="24.0931" x2="67.5158" y2="52.8722" gradientUnits="userSpaceOnUse">
<stop stop-color="#DFECF3"/>
<stop offset="1" stop-color="#DFECF3" stop-opacity="0"/>
</linearGradient>
<linearGradient id="paint6_linear" x1="38" y1="70.5" x2="51.6435" y2="22.364" gradientUnits="userSpaceOnUse">
<stop offset="0.353019" stop-color="#FFE501"/>
<stop offset="0.866137" stop-color="#FF9900"/>
</linearGradient>
</defs>
</svg>
